<?xml version="1.0" standalone="no"?>
<!DOCTYPE svg PUBLIC "-//W3C//DTD SVG 20010904//EN"
 "http://www.w3.org/TR/2001/REC-SVG-20010904/DTD/svg10.dtd">
<svg version="1.0" xmlns="http://www.w3.org/2000/svg"
 width="1920.000000pt" height="1920.000000pt" viewBox="0 0 1920.000000 1920.000000"
 preserveAspectRatio="xMidYMid meet">

<g transform="translate(0.000000,1920.000000) scale(0.100000,-0.100000)"
fill="#000000" stroke="none">
<path d="M9381 14863 c-7 -3 -64 -54 -125 -113 -61 -59 -133 -127 -161 -151
-27 -24 -121 -114 -210 -199 -88 -86 -200 -194 -250 -240 -49 -46 -175 -168
-280 -270 -104 -103 -235 -228 -290 -280 -55 -51 -196 -186 -314 -299 -117
-113 -245 -235 -283 -271 -39 -36 -159 -151 -267 -256 -108 -105 -236 -228
-286 -273 -239 -221 -395 -375 -395 -390 0 -9 46 -60 102 -112 233 -214 285
-259 301 -259 6 0 91 77 187 170 96 93 216 209 265 257 337 328 463 448 522
499 38 32 165 153 283 269 118 117 280 274 360 351 80 76 212 205 295 285 82
80 182 175 220 209 39 35 123 114 188 177 96 92 123 113 147 113 49 0 101 -44
410 -350 75 -74 206 -200 291 -279 84 -80 242 -231 349 -336 107 -106 217
-212 244 -236 84 -74 173 -158 310 -294 72 -72 169 -166 216 -210 178 -165
251 -235 451 -432 141 -140 211 -202 221 -198 26 10 348 327 364 358 14 26 14
31 -3 49 -30 35 -434 431 -498 490 -33 30 -80 74 -105 96 l-45 41 -5 735 c-3
404 -9 738 -13 743 -5 4 -151 9 -325 11 -291 3 -318 1 -329 -14 -10 -14 -13
-102 -13 -375 0 -273 -3 -359 -12 -366 -26 -20 -74 7 -143 78 -39 40 -107 103
-151 140 -45 38 -162 148 -260 245 -99 96 -251 244 -339 327 -87 84 -212 204
-276 267 -65 63 -151 147 -191 185 -129 122 -126 120 -157 108z"/>
<path d="M11522 14779 c-24 -4 -67 -19 -96 -33 -65 -31 -176 -140 -176 -173 0
-25 7 -28 42 -14 93 36 252 44 335 16 26 -9 73 -31 103 -49 145 -87 226 -112
332 -104 100 9 145 27 204 83 30 28 54 59 54 69 0 10 9 29 20 43 13 17 20 41
20 69 l0 44 -74 -50 c-97 -67 -161 -81 -242 -56 -31 10 -77 29 -102 42 -25 13
-50 24 -57 24 -7 0 -20 9 -30 20 -10 11 -25 20 -33 20 -8 0 -31 9 -51 19 -38
20 -136 42 -180 40 -14 -1 -45 -5 -69 -10z"/>
<path d="M9388 13603 c-9 -2 -106 -91 -215 -196 -109 -106 -241 -233 -293
-281 -52 -49 -207 -198 -343 -330 -137 -133 -274 -263 -304 -291 -30 -27 -87
-81 -127 -119 -39 -38 -172 -166 -296 -285 -123 -119 -265 -255 -315 -303
l-90 -87 -5 -991 -5 -990 -65 -57 c-169 -146 -352 -352 -442 -498 -55 -88
-147 -272 -168 -335 -33 -97 -60 -197 -60 -220 0 -19 4 -22 29 -17 15 3 57 23
92 44 97 57 122 71 149 82 14 6 32 15 40 21 41 26 229 114 340 158 477 192
903 203 1335 35 139 -54 401 -187 440 -223 11 -11 25 -20 29 -20 5 0 183 -103
276 -160 66 -41 212 -117 240 -126 19 -6 49 -18 65 -26 46 -24 259 -93 360
-117 208 -49 435 -61 664 -37 85 9 160 21 165 25 6 5 40 15 76 21 36 7 76 19
90 26 14 7 57 25 95 40 79 31 167 78 185 99 7 8 16 15 21 15 11 0 109 63 134
87 11 10 57 51 103 90 45 39 104 99 130 134 65 86 136 190 156 228 9 17 23 44
31 60 9 16 22 34 30 41 8 7 15 19 15 27 0 8 11 35 25 61 14 26 25 53 25 61 0
8 8 32 19 55 38 84 61 153 71 220 6 38 18 85 26 104 22 55 33 382 12 399 -12
11 -37 -9 -149 -118 -205 -200 -496 -429 -545 -429 -11 0 -28 8 -38 19 -15 17
-17 102 -19 1120 l-2 1102 -156 152 c-86 84 -202 195 -259 247 -57 52 -165
156 -240 230 -75 74 -178 173 -229 220 -125 115 -197 184 -461 444 -124 121
-257 248 -295 281 -38 33 -126 117 -195 188 -69 70 -128 126 -130 126 -3 -1
-13 -3 -22 -6z m-239 -1704 c17 -6 36 -19 41 -29 6 -11 10 -170 10 -398 0
-341 -2 -381 -17 -393 -13 -11 -89 -14 -399 -14 -338 0 -385 2 -399 16 -14 14
-16 63 -18 396 -2 358 -1 382 17 401 10 12 32 23 50 25 78 10 685 6 715 -4z
m1226 -4 c21 -8 39 -25 45 -40 6 -16 10 -173 10 -390 0 -401 2 -388 -63 -400
-18 -3 -191 -5 -385 -3 -333 3 -354 4 -367 22 -20 26 -21 748 -2 786 12 25 15
25 162 30 336 13 564 11 600 -5z m-1478 -1225 c250 0 264 -1 283 -20 19 -19
20 -33 20 -399 0 -340 -2 -380 -17 -392 -13 -11 -91 -15 -393 -17 -352 -2
-378 -1 -399 15 l-23 19 2 377 c0 208 3 384 7 393 10 28 46 34 152 29 57 -3
223 -5 368 -5z m1509 -21 c18 -20 19 -44 22 -393 2 -313 1 -374 -12 -391 -14
-19 -28 -20 -393 -23 -318 -2 -381 0 -398 12 -19 14 -20 27 -20 398 0 211 3
391 7 401 7 16 35 17 391 17 378 0 384 0 403 -21z"/>
<path d="M9564 7470 c-254 -37 -473 -241 -529 -492 -14 -64 -15 -165 -13 -858
3 -780 3 -785 25 -850 74 -217 265 -388 481 -430 88 -18 260 -8 336 19 216 76
380 262 421 477 22 112 22 1536 0 1639 -42 202 -213 396 -408 465 -100 35
-208 45 -313 30z m163 -471 c29 -14 52 -35 68 -64 l25 -42 -2 -746 c-3 -735
-3 -746 -24 -773 -34 -46 -70 -67 -123 -72 -66 -6 -93 2 -137 40 -67 59 -64
24 -64 813 0 621 2 720 15 752 21 50 42 72 90 94 53 24 99 24 152 -2z"/>
<path d="M5756 7428 c-14 -20 -16 -158 -16 -1278 0 -989 3 -1260 13 -1273 11
-16 55 -17 577 -15 l565 3 3 212 c2 182 0 213 -14 227 -13 14 -57 16 -350 16
l-334 0 2 298 3 297 239 3 c158 1 244 6 253 14 11 8 13 55 11 227 l-3 216
-250 5 -250 5 0 300 0 300 345 5 c190 3 346 7 348 8 1 1 2 98 2 215 0 152 -3
216 -12 225 -9 9 -148 12 -564 12 l-553 0 -15 -22z"/>
<path d="M7267 7435 c-16 -15 -17 -110 -17 -1284 0 -972 3 -1270 12 -1279 9
-9 113 -12 408 -12 446 0 457 1 593 72 152 79 267 228 312 405 52 206 34 471
-43 646 -28 63 -92 148 -145 191 l-45 37 57 57 c126 126 183 342 152 577 -37
277 -178 466 -411 551 -119 43 -146 46 -506 51 -319 5 -352 4 -367 -12z m689
-480 c84 -42 117 -112 117 -250 0 -96 -13 -149 -52 -202 -42 -58 -89 -77 -191
-78 l-85 0 -3 278 -2 277 83 0 c69 0 92 -4 133 -25z m21 -1003 c22 -12 50 -33
62 -48 56 -72 87 -255 61 -365 -38 -161 -107 -220 -267 -227 l-93 -4 0 337 0
337 98 -4 c74 -3 107 -9 139 -26z"/>
<path d="M10727 7435 c-16 -15 -17 -115 -17 -1284 0 -972 3 -1270 12 -1279 9
-9 103 -12 363 -12 320 0 359 2 431 20 189 49 353 203 433 408 l26 67 0 790 0
790 -23 72 c-44 142 -174 295 -310 366 -131 69 -139 70 -538 75 -327 3 -362 2
-377 -13z m730 -491 c78 -62 73 -12 71 -810 l-3 -711 -29 -37 c-45 -59 -92
-76 -218 -76 l-108 0 0 836 0 836 124 -4 c121 -3 125 -4 163 -34z"/>
<path d="M12420 7430 c-20 -20 -20 -33 -20 -1278 0 -992 3 -1262 13 -1275 11
-16 34 -17 227 -15 l215 3 3 1280 c2 1195 1 1281 -15 1293 -12 8 -71 12 -210
12 -180 0 -194 -1 -213 -20z"/>
<path d="M13297 7438 c-16 -12 -17 -98 -15 -1293 l3 -1280 216 -3 c173 -2 219
0 228 11 8 10 12 186 13 613 l3 599 139 -600 c76 -330 141 -606 144 -612 3
-10 50 -13 187 -13 166 0 184 2 189 18 3 9 57 269 121 577 64 308 119 567 123
575 4 8 9 -250 12 -575 l5 -590 220 0 220 0 3 1279 c1 937 -1 1282 -9 1292 -9
11 -67 14 -285 14 -234 0 -275 -2 -288 -16 -9 -8 -16 -18 -16 -21 0 -14 -292
-1559 -296 -1562 -6 -7 -11 16 -79 364 -175 902 -238 1211 -247 1222 -15 18
-567 19 -591 1z"/>
<path d="M2666 7432 c-3 -5 -37 -197 -76 -428 -39 -230 -93 -549 -121 -709
-27 -159 -67 -398 -90 -530 -22 -132 -65 -383 -95 -559 -42 -245 -52 -321 -43
-332 16 -19 454 -21 461 -1 3 6 25 135 49 285 l43 272 162 0 162 0 11 -62 c5
-35 24 -157 42 -273 18 -115 36 -216 42 -222 7 -10 65 -13 227 -13 182 0 220
2 230 15 10 12 5 61 -29 263 -249 1491 -382 2279 -386 2290 -3 9 -71 12 -294
12 -159 0 -292 -4 -295 -8z m339 -1222 c20 -146 39 -280 42 -297 l5 -33 -91 0
c-88 0 -91 1 -91 23 0 60 85 608 91 591 4 -10 24 -138 44 -284z"/>
<path d="M4093 7429 c-19 -19 -19 -2542 0 -2557 14 -12 419 -18 437 -7 7 4 10
165 10 469 l0 463 153 6 c173 6 241 22 346 84 87 52 197 171 244 264 62 122
69 181 65 514 -4 283 -5 292 -31 370 -62 185 -186 309 -382 381 -45 17 -90 19
-440 22 -302 2 -393 0 -402 -9z m726 -474 c80 -47 95 -110 89 -375 -4 -208
-12 -240 -76 -288 -33 -26 -42 -27 -164 -30 l-128 -4 0 362 0 362 123 -3 c100
-3 128 -8 156 -24z"/>
<path d="M15956 7425 c-3 -8 -30 -160 -60 -338 -143 -836 -210 -1232 -271
-1592 -37 -214 -75 -437 -85 -495 -12 -69 -15 -111 -9 -122 9 -16 31 -18 234
-18 204 0 224 2 229 18 6 18 73 426 83 505 l6 47 162 0 c161 0 163 0 168 -22
3 -13 22 -131 42 -263 20 -132 40 -250 45 -262 10 -23 11 -23 235 -23 l225 0
5 23 c6 21 -409 2529 -421 2548 -3 5 -135 9 -294 9 -248 0 -289 -2 -294 -15z
m338 -1200 c20 -148 40 -287 43 -307 l6 -38 -92 0 c-66 0 -91 3 -91 13 -1 35
85 615 91 609 3 -4 22 -128 43 -277z"/>
</g>
</svg>
