<svg width="284" height="198" viewBox="0 0 284 198" fill="none" xmlns="http://www.w3.org/2000/svg">
<g clip-path="url(#clip0_261_3182)">
<path d="M244.467 130.822L243.933 130.885L250.524 195.498L251.058 195.435L244.467 130.822Z" fill="#292A2E"/>
<path d="M261.537 159.029L258.295 193.44L258.829 193.498L262.072 159.087L261.537 159.029Z" fill="#292A2E"/>
<path d="M267.113 189.281H243.054V197.657H267.113V189.281Z" fill="#292A2E"/>
<path opacity="0.2" d="M267.113 189.281H243.054V197.657H267.113V189.281Z" fill="white"/>
<path d="M281.616 173.858C286.174 167.36 284.001 157.356 276.763 151.514C269.525 145.671 259.963 146.203 255.405 152.702C250.848 159.2 253.021 169.204 260.258 175.046C267.496 180.888 277.058 180.356 281.616 173.858Z" fill="#0CBC8B"/>
<path opacity="0.2" d="M281.616 173.858C286.174 167.36 284.001 157.356 276.763 151.514C269.525 145.671 259.963 146.203 255.405 152.702C250.848 159.2 253.021 169.204 260.258 175.046C267.496 180.888 277.058 180.356 281.616 173.858Z" fill="white"/>
<path opacity="0.5" d="M281.616 173.859C281.309 174.298 280.975 174.713 280.616 175.101C275.599 178.54 268.194 177.999 262.319 173.256C255.082 167.415 252.91 157.411 257.468 150.913C257.774 150.476 258.108 150.06 258.465 149.67C263.485 146.229 270.887 146.773 276.764 151.514C284.001 157.357 286.173 167.361 281.616 173.859Z" fill="white"/>
<path d="M248.041 149.205C255.211 143.267 257.16 133.084 252.394 126.46C247.628 119.836 237.952 119.28 230.782 125.217C223.612 131.155 221.663 141.338 226.429 147.962C231.195 154.586 240.871 155.142 248.041 149.205Z" fill="#0CBC8B"/>
<path opacity="0.2" d="M245.769 147.5C240.216 152.101 233.159 152.802 228.044 149.807C227.452 149.248 226.911 148.629 226.429 147.959C221.662 141.337 223.61 131.153 230.781 125.216C236.333 120.618 243.39 119.914 248.503 122.907C249.097 123.466 249.638 124.086 250.12 124.758C254.887 131.379 252.939 141.564 245.769 147.5Z" fill="white"/>
<path d="M198.996 94.359L281.463 94.4898V61.7407H198.996V94.359Z" fill="#EFEFEF"/>
<path d="M274.362 70.8239H206.097C206.063 70.8251 206.029 70.819 205.998 70.806C205.966 70.7929 205.937 70.7732 205.913 70.748C205.889 70.7228 205.869 70.6926 205.856 70.6592C205.843 70.6258 205.836 70.5899 205.836 70.5536C205.836 70.5174 205.843 70.4815 205.856 70.4481C205.869 70.4147 205.889 70.3845 205.913 70.3593C205.937 70.3341 205.966 70.3144 205.998 70.3013C206.029 70.2883 206.063 70.2822 206.097 70.2833H274.362C274.396 70.2822 274.43 70.2883 274.461 70.3013C274.493 70.3144 274.522 70.3341 274.546 70.3593C274.57 70.3845 274.589 70.4147 274.603 70.4481C274.616 70.4815 274.623 70.5174 274.623 70.5536C274.623 70.5899 274.616 70.6258 274.603 70.6592C274.589 70.6926 274.57 70.7228 274.546 70.748C274.522 70.7732 274.493 70.7929 274.461 70.806C274.43 70.819 274.396 70.8251 274.362 70.8239Z" fill="white"/>
<path d="M274.362 78.935H206.097C206.063 78.9362 206.029 78.9301 205.998 78.917C205.966 78.904 205.937 78.8843 205.913 78.859C205.889 78.8338 205.869 78.8036 205.856 78.7703C205.843 78.7369 205.836 78.701 205.836 78.6647C205.836 78.6285 205.843 78.5926 205.856 78.5592C205.869 78.5258 205.889 78.4956 205.913 78.4704C205.937 78.4452 205.966 78.4255 205.998 78.4124C206.029 78.3994 206.063 78.3932 206.097 78.3944H274.362C274.396 78.3932 274.43 78.3994 274.461 78.4124C274.493 78.4255 274.522 78.4452 274.546 78.4704C274.57 78.4956 274.589 78.5258 274.603 78.5592C274.616 78.5926 274.623 78.6285 274.623 78.6647C274.623 78.701 274.616 78.7369 274.603 78.7703C274.589 78.8036 274.57 78.8338 274.546 78.859C274.522 78.8843 274.493 78.904 274.461 78.917C274.43 78.9301 274.396 78.9362 274.362 78.935Z" fill="white"/>
<path d="M274.362 87.0462H233.819C233.752 87.0462 233.688 87.0178 233.641 86.967C233.593 86.9163 233.567 86.8475 233.567 86.7758C233.567 86.7041 233.593 86.6353 233.641 86.5846C233.688 86.5339 233.752 86.5054 233.819 86.5054H274.362C274.429 86.5054 274.493 86.5339 274.541 86.5846C274.588 86.6353 274.614 86.7041 274.614 86.7758C274.614 86.8475 274.588 86.9163 274.541 86.967C274.493 87.0178 274.429 87.0462 274.362 87.0462Z" fill="white"/>
<path d="M100.602 42.7524L0.804321 42.7786L0.811838 0H100.602V42.7524Z" fill="#EFEFEF"/>
<path d="M93.1486 9.46568H8.265C8.21181 9.46568 8.1608 9.44302 8.12319 9.40267C8.08558 9.36232 8.06445 9.3076 8.06445 9.25054C8.06445 9.19348 8.08558 9.13876 8.12319 9.09841C8.1608 9.05807 8.21181 9.0354 8.265 9.0354H93.1486C93.2017 9.0354 93.2527 9.05807 93.2904 9.09841C93.328 9.13876 93.3491 9.19348 93.3491 9.25054C93.3491 9.3076 93.328 9.36232 93.2904 9.40267C93.2527 9.44302 93.2017 9.46568 93.1486 9.46568Z" fill="white"/>
<path d="M93.1486 17.9797H8.265C8.21181 17.9797 8.1608 17.9571 8.12319 17.9167C8.08558 17.8764 8.06445 17.8216 8.06445 17.7646C8.06445 17.7075 8.08558 17.6528 8.12319 17.6125C8.1608 17.5721 8.21181 17.5494 8.265 17.5494H93.1486C93.2017 17.5494 93.2527 17.5721 93.2904 17.6125C93.328 17.6528 93.3491 17.7075 93.3491 17.7646C93.3491 17.8216 93.328 17.8764 93.2904 17.9167C93.2527 17.9571 93.2017 17.9797 93.1486 17.9797Z" fill="white"/>
<path d="M93.1486 26.4935H8.265C8.21181 26.4935 8.1608 26.4708 8.12319 26.4305C8.08558 26.3902 8.06445 26.3354 8.06445 26.2784C8.06445 26.2213 8.08558 26.1666 8.12319 26.1262C8.1608 26.0859 8.21181 26.0632 8.265 26.0632H93.1486C93.2017 26.0632 93.2527 26.0859 93.2904 26.1262C93.328 26.1666 93.3491 26.2213 93.3491 26.2784C93.3491 26.3354 93.328 26.3902 93.2904 26.4305C93.2527 26.4708 93.2017 26.4935 93.1486 26.4935Z" fill="white"/>
<path d="M50.8218 35.0076H8.265C8.21181 35.0076 8.1608 34.9849 8.12319 34.9445C8.08558 34.9042 8.06445 34.8495 8.06445 34.7924C8.06445 34.7354 8.08558 34.6806 8.12319 34.6403C8.1608 34.5999 8.21181 34.5773 8.265 34.5773H50.8218C50.875 34.5773 50.926 34.5999 50.9636 34.6403C51.0012 34.6806 51.0223 34.7354 51.0223 34.7924C51.0223 34.8495 51.0012 34.9042 50.9636 34.9445C50.926 34.9849 50.875 35.0076 50.8218 35.0076Z" fill="white"/>
<path d="M236.115 20.1033H54.9853C50.5373 20.1033 46.9314 23.9716 46.9314 28.7435V171.012C46.9314 175.784 50.5373 179.652 54.9853 179.652H236.115C240.564 179.652 244.169 175.784 244.169 171.012V28.7435C244.169 23.9716 240.564 20.1033 236.115 20.1033Z" fill="white"/>
<path d="M236.115 179.94H54.9854C52.7789 179.937 50.6635 178.996 49.1033 177.322C47.5431 175.648 46.6655 173.379 46.663 171.012V28.7432C46.6655 26.3761 47.5432 24.1068 49.1034 22.433C50.6636 20.7592 52.7789 19.8177 54.9854 19.8149H236.115C238.321 19.8176 240.437 20.7591 241.997 22.4329C243.557 24.1067 244.435 26.3761 244.437 28.7432V171.012C244.435 173.379 243.557 175.648 241.997 177.322C240.437 178.996 238.322 179.937 236.115 179.94ZM54.9854 20.391C52.9212 20.3934 50.9423 21.2741 49.4827 22.84C48.0232 24.4058 47.2022 26.5288 47.1999 28.7432V171.012C47.2022 173.226 48.0232 175.349 49.4827 176.915C50.9423 178.481 52.9212 179.362 54.9854 179.364H236.115C238.179 179.362 240.158 178.481 241.618 176.915C243.077 175.349 243.898 173.226 243.9 171.012V28.7432C243.898 26.5288 243.077 24.4058 241.618 22.84C240.158 21.2741 238.179 20.3934 236.115 20.391H54.9854Z" fill="#292A2E"/>
<path d="M244.169 28.7431V37.4375H46.9323V28.7431C46.9323 26.4516 47.7808 24.2539 49.2912 22.6336C50.8016 21.0132 52.8502 20.1029 54.9862 20.1029H236.115C238.251 20.1029 240.3 21.0132 241.81 22.6336C243.32 24.2539 244.169 26.4516 244.169 28.7431Z" fill="#292A2E"/>
<path opacity="0.2" d="M131.927 107.681H102.757C99.0769 107.681 96.0933 110.882 96.0933 114.83C96.0933 118.779 99.0769 121.979 102.757 121.979H131.927C135.608 121.979 138.592 118.779 138.592 114.83C138.592 110.882 135.608 107.681 131.927 107.681Z" fill="#367CFF"/>
<path opacity="0.2" d="M187.955 107.681H158.785C155.104 107.681 152.121 110.882 152.121 114.83C152.121 118.779 155.104 121.979 158.785 121.979H187.955C191.635 121.979 194.619 118.779 194.619 114.83C194.619 110.882 191.635 107.681 187.955 107.681Z" fill="#367CFF"/>
<path opacity="0.1" d="M224.687 75.7362C224.688 77.539 224.357 79.3242 223.714 80.9899C223.071 82.6556 222.129 84.169 220.941 85.444C219.753 86.7189 218.342 87.7302 216.789 88.4202C215.237 89.1103 213.573 89.4654 211.892 89.4655H84.2749C82.5945 89.4655 80.9305 89.1104 79.3779 88.4206C77.8254 87.7307 76.4147 86.7195 75.2265 85.4447C74.0382 84.17 73.0957 82.6566 72.4526 80.9911C71.8095 79.3255 71.4785 77.5404 71.4785 75.7376C71.4785 73.9349 71.8095 72.1498 72.4526 70.4842C73.0957 68.8187 74.0382 67.3053 75.2265 66.0306C76.4147 64.7558 77.8254 63.7446 79.3779 63.0547C80.9305 62.3648 82.5945 62.0098 84.2749 62.0098H211.892C215.286 62.0099 218.54 63.4561 220.94 66.0303C223.339 68.6045 224.687 72.0958 224.687 75.7362Z" fill="#367CFF"/>
<path d="M224.687 75.7362C224.688 77.539 224.357 79.3242 223.714 80.9899C223.071 82.6556 222.129 84.169 220.941 85.444C219.753 86.7189 218.342 87.7302 216.789 88.4202C215.237 89.1103 213.573 89.4654 211.892 89.4655H192.069V62.0098H211.892C215.286 62.0099 218.54 63.4561 220.94 66.0303C223.339 68.6045 224.687 72.0958 224.687 75.7362Z" fill="#367CFF"/>
<path d="M89.3103 80.0488L88.0112 75.5908C87.9294 75.3179 87.7764 74.6985 87.5524 73.7325H87.5005C87.3282 74.5415 87.1774 75.1655 87.0482 75.6046L85.7104 80.0488H84.4696L82.5366 72.45H83.661C84.1175 74.359 84.4655 75.8126 84.7048 76.8111C84.878 77.4739 85.0151 78.1471 85.1152 78.8271H85.1668C85.2144 78.5637 85.2909 78.2228 85.3963 77.8044C85.5017 77.386 85.5933 77.0544 85.671 76.8096L86.9701 72.4486H88.1333L89.4002 76.8096C89.6075 77.4643 89.7716 78.1339 89.8912 78.8133H89.943C89.9766 78.5543 90.023 78.2974 90.0821 78.0437C90.1573 77.697 90.6064 75.8319 91.4295 72.4486H92.5412L90.5814 80.0474L89.3103 80.0488Z" fill="#0A0A0A"/>
<path d="M100.135 80.0488L98.836 75.5908C98.754 75.3179 98.6011 74.6985 98.3772 73.7325H98.3256C98.1531 74.5415 98.0023 75.1655 97.8733 75.6046L96.5352 80.0488H95.2944L93.3615 72.45H94.486C94.9426 74.359 95.2905 75.8126 95.5298 76.8111C95.7031 77.4739 95.8401 78.1471 95.9401 78.8271H95.9919C96.0395 78.5637 96.116 78.2228 96.2214 77.8044C96.3268 77.386 96.4184 77.0544 96.496 76.8096L97.7951 72.4486H98.9584L100.225 76.8096C100.432 77.4643 100.597 78.1338 100.716 78.8133H100.768C100.801 78.5543 100.848 78.2974 100.907 78.0437C100.982 77.697 101.431 75.8319 102.254 72.4486H103.366L101.408 80.0474L100.135 80.0488Z" fill="#0A0A0A"/>
<path d="M110.96 80.0488L109.661 75.5908C109.579 75.3179 109.426 74.6985 109.202 73.7325H109.15C108.978 74.5415 108.827 75.1655 108.698 75.6046L107.359 80.0488H106.118L104.185 72.45H105.31C105.766 74.359 106.114 75.8126 106.353 76.8111C106.527 77.4739 106.664 78.1471 106.764 78.8271H106.815C106.863 78.5637 106.94 78.2228 107.045 77.8044C107.15 77.386 107.242 77.0544 107.32 76.8096L108.619 72.4486H109.782L111.051 76.8116C111.258 77.4663 111.422 78.1359 111.542 78.8153H111.593C111.627 78.5563 111.673 78.2994 111.732 78.0457C111.808 77.699 112.257 75.8339 113.08 72.4506H114.192L112.232 80.0494L110.96 80.0488Z" fill="#0A0A0A"/>
<path d="M205.293 79.5552C203.789 79.5565 202.335 78.9789 201.194 77.9274C200.053 76.8758 199.302 75.42 199.077 73.8247C198.852 72.2293 199.167 70.6003 199.967 69.2335C200.766 67.8668 201.996 66.8532 203.433 66.3768C204.87 65.9005 206.419 65.993 207.798 66.6376C209.177 67.2823 210.294 68.4362 210.947 69.8897C211.6 71.3432 211.745 72.9999 211.356 74.5585C210.968 76.1172 210.07 77.4744 208.828 78.3835C207.786 79.1457 206.554 79.5539 205.293 79.5552ZM205.274 67.509C204 67.5097 202.774 68.0369 201.853 68.9811C200.932 69.9252 200.384 71.2138 200.325 72.5793C200.266 73.9449 200.699 75.2824 201.535 76.3142C202.371 77.3461 203.545 77.993 204.814 78.1207C206.082 78.2484 207.348 77.847 208.348 76.9999C209.348 76.1528 210.006 74.925 210.184 73.5715C210.363 72.218 210.049 70.8427 209.307 69.7312C208.565 68.6196 207.453 67.8572 206.201 67.6023C205.895 67.5403 205.585 67.5091 205.274 67.509Z" fill="white"/>
<path d="M214.556 85.4043C214.458 85.4044 214.361 85.3815 214.272 85.337C214.183 85.2925 214.104 85.2275 214.041 85.1468L208.444 77.982C208.329 77.8357 208.274 77.6466 208.29 77.4563C208.305 77.2661 208.391 77.0903 208.527 76.9677C208.663 76.845 208.84 76.7855 209.017 76.8022C209.194 76.819 209.358 76.9106 209.473 77.0569L215.07 84.2217C215.152 84.3267 215.204 84.4546 215.221 84.5905C215.237 84.7263 215.218 84.8644 215.164 84.9886C215.11 85.1127 215.024 85.2178 214.916 85.2914C214.808 85.3651 214.683 85.4042 214.556 85.4043Z" fill="white"/>
<path d="M10.0661 182.424C8.44404 182.424 6.84604 182.003 5.40814 181.198C3.97023 180.393 2.73499 179.227 1.80756 177.799C0.880136 176.371 0.287987 174.724 0.0815238 172.998C-0.12494 171.272 0.0603954 169.519 0.621753 167.886C1.19117 166.228 14.6015 127.213 17.1442 120.182L35.9158 127.995C34.4862 131.948 29.3064 146.93 25.1452 158.999L32.0585 158.193L34.2344 179.667L11.1555 182.359C10.7937 182.401 10.4301 182.423 10.0661 182.424Z" fill="#367CFF"/>
<path d="M22.1308 181.319L19.0609 197.712H78.6867L75.2522 181.008L22.1308 181.319Z" fill="#262626"/>
<path d="M35.0228 108.06C30.0411 108.457 24.9615 110.193 21.221 113.745C15.5792 119.102 16.0812 122.452 18.8977 137.288C21.3208 150.054 20.3597 155.633 21.9807 179.189C22.0285 179.883 22.1308 181.319 22.1308 181.319L75.4211 181.224C75.4211 181.224 80.4146 149.97 83.1714 135.555C85.2679 124.596 90.7746 111.292 67.5564 108.611C67.4952 108.604 48.8737 106.959 35.0228 108.06Z" fill="#367CFF"/>
<path d="M144.168 96.2431C141.657 96.2422 139.211 95.3947 137.174 93.8203C135.138 92.2459 133.614 90.0244 132.819 87.4701C132.024 84.9158 131.997 82.1579 132.743 79.5866C133.489 77.0153 134.97 74.7607 136.976 73.1418C138.982 71.5229 141.412 70.6216 143.922 70.5654C146.432 70.5092 148.894 71.301 150.961 72.8288C153.029 74.3565 154.596 76.5429 155.441 79.0786C156.287 81.6143 156.368 84.3709 155.672 86.9586C154.95 89.6337 153.438 91.985 151.363 93.6593C149.289 95.3335 146.764 96.2402 144.168 96.2431ZM144.159 73.439C141.803 73.4374 139.534 74.3942 137.809 76.1166C136.085 77.8389 135.033 80.1986 134.866 82.72C134.699 85.2413 135.429 87.7369 136.909 89.7035C138.39 91.6701 140.51 92.9615 142.843 93.3174C145.175 93.6733 147.547 93.0671 149.48 91.6212C151.412 90.1752 152.762 87.997 153.257 85.5257C153.752 83.0543 153.355 80.4735 152.146 78.3037C150.938 76.1339 149.007 74.5364 146.744 73.8332C145.904 73.5725 145.034 73.4398 144.159 73.439Z" fill="#0A0A0A"/>
<path d="M134.06 112.068C133.841 112.068 133.625 112.01 133.432 111.9C133.238 111.79 133.072 111.63 132.949 111.435C132.827 111.241 132.75 111.017 132.726 110.783C132.703 110.549 132.733 110.313 132.814 110.094L138.919 93.6614C139.055 93.3125 139.313 93.0347 139.638 92.888C139.962 92.7413 140.328 92.7375 140.655 92.8774C140.982 93.0173 141.245 93.2896 141.387 93.6357C141.529 93.9817 141.538 94.3737 141.413 94.7271L135.308 111.16C135.208 111.428 135.036 111.658 134.814 111.819C134.592 111.981 134.329 112.068 134.06 112.068Z" fill="#0A0A0A"/>
<path d="M129.386 110.265L133.13 101.255C133.212 101.057 133.332 100.88 133.482 100.734C133.632 100.589 133.808 100.478 134 100.41C134.191 100.341 134.394 100.317 134.595 100.337C134.797 100.357 134.992 100.422 135.168 100.528C135.488 100.734 135.726 101.06 135.835 101.443C135.944 101.826 135.916 102.239 135.757 102.601L134.954 104.533L140.078 99.7013C140.639 99.154 141.654 98.866 142.186 99.5814C142.407 99.8424 142.539 100.176 142.561 100.528C142.583 100.88 142.492 101.23 142.305 101.52C142.311 101.524 142.317 101.529 142.322 101.535C142.325 101.54 142.328 101.545 142.331 101.551L143.196 100.706C143.356 100.549 143.547 100.433 143.754 100.366C143.962 100.299 144.18 100.282 144.395 100.317C144.609 100.352 144.813 100.437 144.992 100.568C145.172 100.698 145.322 100.87 145.431 101.07C145.598 101.39 145.658 101.761 145.6 102.122C145.543 102.483 145.371 102.811 145.115 103.053L144.747 103.413C144.751 103.429 144.753 103.445 144.752 103.462C145.054 103.281 145.405 103.221 145.744 103.293C146.083 103.364 146.387 103.563 146.602 103.853C146.828 104.177 146.932 104.582 146.893 104.985C146.854 105.388 146.674 105.761 146.39 106.028L145.476 106.921C145.497 106.918 145.519 106.921 145.539 106.929C145.559 106.936 145.577 106.949 145.592 106.966C145.608 106.987 145.618 107.013 145.622 107.04C145.931 106.959 146.258 106.989 146.55 107.126C146.842 107.263 147.085 107.499 147.24 107.798C147.397 108.116 147.449 108.482 147.388 108.835C147.327 109.189 147.157 109.511 146.905 109.748L139.19 117.282C138.111 118.336 136.763 119.02 135.319 119.247C133.875 119.474 132.4 119.233 131.085 118.555C129.95 117.97 129.073 116.934 128.639 115.667C128.206 114.4 128.25 113.001 128.762 111.768L129.386 110.265Z" fill="#E98862"/>
<g opacity="0.2">
<path d="M137.255 106.329C137.279 106.356 137.312 106.373 137.347 106.375C137.383 106.377 137.417 106.364 137.443 106.339L142.311 101.737C142.324 101.724 142.335 101.709 142.343 101.692C142.35 101.675 142.355 101.657 142.356 101.638C142.357 101.619 142.355 101.6 142.349 101.582C142.343 101.564 142.334 101.548 142.323 101.534C142.311 101.519 142.297 101.508 142.281 101.5C142.265 101.491 142.248 101.486 142.23 101.485C142.213 101.484 142.195 101.487 142.178 101.493C142.162 101.499 142.146 101.508 142.133 101.521L137.266 106.123C137.253 106.136 137.242 106.151 137.234 106.168C137.227 106.185 137.222 106.203 137.221 106.222C137.22 106.241 137.222 106.26 137.228 106.278C137.234 106.296 137.243 106.312 137.254 106.326L137.255 106.329Z" fill="#0C0C0C"/>
</g>
<g opacity="0.2">
<path d="M139.088 108.688C139.112 108.715 139.145 108.732 139.18 108.734C139.215 108.736 139.25 108.723 139.276 108.698L144.708 103.562C144.721 103.549 144.732 103.534 144.74 103.517C144.748 103.5 144.752 103.482 144.753 103.463C144.755 103.444 144.752 103.425 144.746 103.407C144.741 103.389 144.732 103.373 144.72 103.359C144.696 103.331 144.663 103.315 144.628 103.312C144.592 103.31 144.558 103.322 144.531 103.346L139.098 108.482C139.085 108.494 139.074 108.509 139.067 108.526C139.059 108.543 139.054 108.562 139.053 108.581C139.052 108.6 139.055 108.619 139.06 108.636C139.066 108.654 139.075 108.671 139.087 108.685L139.088 108.688Z" fill="#0C0C0C"/>
</g>
<g opacity="0.2">
<path d="M141.06 111.255C141.083 111.283 141.116 111.299 141.152 111.301C141.187 111.303 141.221 111.29 141.247 111.265L145.58 107.168C145.594 107.156 145.605 107.141 145.612 107.124C145.62 107.107 145.625 107.088 145.626 107.069C145.627 107.051 145.624 107.032 145.619 107.014C145.613 106.996 145.604 106.979 145.592 106.965C145.581 106.951 145.566 106.939 145.551 106.931C145.535 106.923 145.518 106.918 145.5 106.917C145.482 106.915 145.465 106.918 145.448 106.924C145.431 106.93 145.416 106.94 145.403 106.952L141.07 111.049C141.057 111.062 141.046 111.077 141.038 111.094C141.03 111.111 141.026 111.129 141.025 111.148C141.023 111.167 141.026 111.186 141.032 111.204C141.037 111.222 141.046 111.238 141.058 111.252L141.06 111.255Z" fill="#0C0C0C"/>
</g>
<path d="M127.046 107.34L104.345 134.765L81.4071 113.475L68.2333 129.81L98.6853 158.074L98.8906 158.265C98.9622 158.33 99.0343 158.394 99.1068 158.458C101.136 160.22 103.735 161.044 106.332 160.75C108.928 160.457 111.309 159.068 112.951 156.891L140.852 119.897L127.046 107.34Z" fill="#367CFF"/>
<path d="M67.5566 108.613C67.4948 108.604 65.8035 115.433 52.6031 114.37C43.4645 113.635 41.2363 106.962 41.0269 106.962C42.0121 106.738 43.6122 106.504 44.0498 106.254C45.4887 105.424 46.5368 104.415 47.0646 102.248C47.4773 100.553 47.6875 94.0293 47.6875 90.7561L61.7497 94.1459C61.5537 97.8382 60.1818 106.398 64.99 107.913C65.7901 108.163 66.6518 108.394 67.5566 108.613Z" fill="#E98862"/>
<path d="M61.2637 101.405C55.7202 101.874 48.5989 99.3631 47.2461 91.4285L46.0256 84.2692C44.6728 76.3346 47.4611 69.1402 54.4251 67.7739C61.3888 66.4076 67.6908 71.8187 69.0433 79.7533L69.5837 82.9214C70.1018 85.9673 71.154 100.568 61.2637 101.405Z" fill="#E98862"/>
<path d="M66.4032 94.1208C65.4083 88.757 64.9519 85.1785 65.0048 81.403C66.4064 78.7654 66.0378 75.7385 65.7191 74.4303C67.0929 75.2345 67.6674 75.3232 68.9603 75.3232C68.9603 75.3232 66.6424 65.3434 58.764 62.658C57.3143 62.0532 53.6165 61.2891 48.7052 62.0117C44.5279 62.6263 34.2306 65.9773 32.7583 78.4138V78.421C32.7095 78.8334 31.721 90.2921 29.7499 95.7898C27.0999 103.18 23.3801 105.477 23.4743 114.004C23.5956 124.972 42.3919 126.432 53.7303 125.612C65.0687 124.791 71.3953 120.792 71.478 112.887C71.5693 104.028 68.3941 104.851 66.4032 94.1208Z" fill="#0A0A0A"/>
<path d="M66.4064 89.6238C64.2901 90.0389 62.1604 87.9468 61.7735 85.6764C61.3867 83.4061 62.8885 81.8171 65.0048 81.4021L66.4064 89.6238Z" fill="#E98862"/>
<path d="M81.8981 142.637C81.8897 142.637 81.8813 142.636 81.8731 142.634C81.8558 142.631 81.8392 142.623 81.8244 142.613C81.8096 142.603 81.7969 142.589 81.7869 142.574C81.7769 142.558 81.7699 142.541 81.7663 142.522C81.7627 142.504 81.7625 142.484 81.7657 142.466L83.1167 134.788C83.1193 134.768 83.1256 134.75 83.135 134.733C83.1445 134.717 83.1569 134.703 83.1716 134.691C83.1863 134.68 83.203 134.672 83.2207 134.668C83.2383 134.664 83.2565 134.664 83.2743 134.667C83.292 134.671 83.3089 134.678 83.3239 134.689C83.339 134.7 83.3518 134.714 83.3617 134.73C83.3716 134.746 83.3783 134.764 83.3815 134.783C83.3847 134.802 83.3843 134.822 83.3803 134.841L82.0296 142.52C82.0238 142.553 82.0075 142.582 81.9834 142.603C81.9594 142.625 81.9293 142.637 81.8981 142.637Z" fill="#0C0C0C"/>
<path d="M22.1309 181.463C22.0962 181.463 22.0628 181.449 22.0378 181.423C22.0128 181.398 21.998 181.362 21.9966 181.325L20.3268 134.819C20.3261 134.8 20.3288 134.781 20.3349 134.764C20.341 134.746 20.3503 134.73 20.3623 134.716C20.3742 134.702 20.3886 134.691 20.4047 134.683C20.4207 134.675 20.438 134.67 20.4556 134.669C20.4908 134.67 20.5246 134.684 20.5503 134.71C20.5761 134.735 20.592 134.77 20.595 134.808L22.2651 181.314C22.2658 181.333 22.263 181.352 22.2569 181.37C22.2507 181.387 22.2414 181.404 22.2294 181.417C22.2174 181.431 22.203 181.443 22.187 181.45C22.1709 181.458 22.1536 181.463 22.136 181.463H22.1309Z" fill="#0C0C0C"/>
<path d="M102.822 137.127C102.797 137.127 102.773 137.12 102.752 137.106C102.73 137.091 102.713 137.071 102.702 137.047C102.691 137.023 102.686 136.997 102.688 136.97C102.691 136.943 102.7 136.918 102.715 136.897L104.239 134.679C104.26 134.649 104.292 134.629 104.326 134.624C104.361 134.619 104.397 134.628 104.425 134.65C104.453 134.673 104.472 134.706 104.478 134.744C104.484 134.781 104.475 134.819 104.455 134.85L102.929 137.069C102.917 137.087 102.901 137.101 102.882 137.111C102.864 137.122 102.843 137.127 102.822 137.127Z" fill="#0C0C0C"/>
<path d="M6.1116 198H274.48C274.551 198 274.62 197.97 274.67 197.916C274.72 197.862 274.749 197.788 274.749 197.712C274.749 197.636 274.72 197.562 274.67 197.508C274.62 197.454 274.551 197.424 274.48 197.424H6.1116C6.0404 197.424 5.97212 197.454 5.92177 197.508C5.87142 197.562 5.84314 197.636 5.84314 197.712C5.84314 197.788 5.87142 197.862 5.92177 197.916C5.97212 197.97 6.0404 198 6.1116 198Z" fill="#292A2E"/>
</g>
<defs>
<clipPath id="clip0_261_3182">
<rect width="284" height="198" fill="white"/>
</clipPath>
</defs>
</svg>
